<svg width="200" height="200" xmlns="http://www.w3.org/2000/svg">
 <!-- Created with Method Draw - http://github.com/duopixel/Method-Draw/ -->

 <g>
  <title>background</title>
 </g>
 <g>
  <title>Layer 1</title>
  <!-- Created with Method Draw - http://github.com/duopixel/Method-Draw/ -->
  <g id="svg_15">
   <g opacity="1" id="svg_12">
    <title>background</title>
    <rect x="0" y="0" width="200" height="200" id="svg_10" fill="#81a9e8"/>
    <g id="svg_9" display="none">
     <rect id="svg_13" width="100%" height="100%" x="0" y="0" stroke-width="0" fill="url(#gridpattern)"/>
    </g>
   </g>
   <g stroke="null" id="svg_14">
    <title stroke="null" transform="translate(0,-4.2353363037109375) translate(7.499996185302734,0) translate(0,15) translate(-19,-27) translate(52.08550262451172,32.41636657714844) scale(1.3965396881103516) translate(-52.08550262451172,-32.41636657714844) translate(23.69106101989746,3.8924810886383057) scale(0.8879166841506958) translate(-23.69106101989746,-3.8924810886383057) ">Layer 1</title>
    <metadata stroke="null" transform="translate(0,-4.2353363037109375) translate(7.499996185302734,0) translate(0,15) translate(-19,-27) translate(52.08550262451172,32.41636657714844) scale(1.3965396881103516) translate(-52.08550262451172,-32.41636657714844) translate(23.69106101989746,3.8924810886383057) scale(0.8879166841506958) translate(-23.69106101989746,-3.8924810886383057) "/>
    <defs stroke="null" transform="translate(0,-4.2353363037109375) translate(7.499996185302734,0) translate(0,15) translate(-19,-27) translate(52.08550262451172,32.41636657714844) scale(1.3965396881103516) translate(-52.08550262451172,-32.41636657714844) translate(23.69106101989746,3.8924810886383057) scale(0.8879166841506958) translate(-23.69106101989746,-3.8924810886383057) ">
     <style stroke="null">.cls-1 {
        fill: #fff;
        fill-rule: evenodd;
      }</style>
    </defs>
    <g stroke="null" id="svg_7">
     <path stroke="null" id="svg_8" class="cls-1" d="m139.87369,101.821033l0,0.182435a7.845291,7.297401 0 0 0 -4.260597,7.016732a9.417367,8.759687 0 0 0 1.50871,4.892065l10.651491,32.644641a3.593746,3.342771 0 0 1 0.603484,1.85803a3.678234,3.421359 0 0 1 -3.153204,3.368031l-0.024139,0.03368l-86.796073,0a3.620904,3.368031 0 0 1 -3.690305,-3.853589l-0.03621,-0.036487l0.132767,-0.40697c0.021122,-0.067361 0.042243,-0.134721 0.066383,-0.202082l10.96832,-33.287373a9.354001,8.700747 0 0 0 1.611302,-5.012753a7.845291,7.297401 0 0 0 -4.260597,-7.016732l0,-0.182435a52.660005,48.982398 0 0 1 -15.97422,-35.11453a54.313552,50.520465 0 0 1 108.627103,0a52.660005,48.982398 0 0 1 -15.97422,35.117337l0.000002,0.000002zm-38.339332,-44.845332a10.461394,9.730803 0 1 1 -10.648473,9.727996a10.560968,9.823423 0 0 1 10.648473,-9.727996zm48.330008,12.512236l-31.879037,-1.835577c0.033191,-0.392937 0.054314,-0.791488 0.054314,-1.192845a16.429849,15.282441 0 0 0 -9.052258,-13.604039l14.076263,-26.200474a47.756699,44.421523 0 0 1 26.939522,39.804513c-0.01207,1.018829 -0.063366,2.026432 -0.135784,3.028422l-0.003017,0l-0.000002,0zm-65.372394,-3.028422a16.272943,15.136493 0 0 0 0.105609,1.703662l-31.942403,1.178811c-0.066383,-0.954275 -0.111644,-1.911358 -0.111644,-2.882474a47.783856,44.446783 0 0 1 27.639562,-40.135703l14.181872,26.166794a16.457007,15.307701 0 0 0 -9.86998,13.968909l-0.003017,0zm16.773836,15.321735a16.897549,15.717478 0 0 0 9.63462,-2.784239l17.501034,24.418225a49.464559,46.010111 0 0 1 -53.915252,0.227342l17.501034,-24.418225a16.897549,15.717478 0 0 0 9.281582,2.556896l-0.003017,0l-0.000001,0zm0.419421,81.279009a5.165822,4.805057 0 0 1 5.79948,3.679574l0,12.209112a6.261146,5.823887 0 0 1 -11.632153,0.050521l0,-12.276474a5.15677,4.796637 0 0 1 5.83569,-3.662734l-0.003017,0l0,0.000001zm-47.445904,0.185242c3.240709,0.544499 5.15677,2.604611 4.29077,4.602976l-5.23824,12.094038a6.879717,6.399258 0 0 1 -7.4832,2.700038c-3.2739,-0.519238 -5.223153,-2.582157 -4.345084,-4.600169l5.298589,-12.155786a6.819368,6.343126 0 0 1 7.4832,-2.641098l-0.006035,0zm92.833929,0.280669c-2.975175,0.505205 -4.743384,2.475503 -3.943768,4.398087l4.809767,11.56638a6.055961,5.633032 0 0 0 6.789194,2.500763c2.945001,-0.530465 4.686052,-2.497956 3.901523,-4.400894l-4.761488,-11.507439a6.107257,5.680745 0 0 0 -6.792212,-2.548477l-0.003017,-0.00842l0.000001,-0.000001z"/>
    </g>
   </g>
  </g>
 </g>
</svg>