<svg xmlns="http://www.w3.org/2000/svg" width="200" height="200" viewBox="-15 -20 92 110" preserveAspectRatio="xMidYMin slice">
  <metadata><?xpacket begin="﻿" id="W5M0MpCehiHzreSzNTczkc9d"?>
<x:xmpmeta xmlns:x="adobe:ns:meta/" x:xmptk="Adobe XMP Core 5.6-c138 79.159824, 2016/09/14-01:09:01        ">
   <rdf:RDF xmlns:rdf="http://www.w3.org/1999/02/22-rdf-syntax-ns#">
      <rdf:Description rdf:about=""/>
   </rdf:RDF>
</x:xmpmeta>
<?xpacket end="w"?></metadata>
<defs>
    <style>
      .cls-1 {
        fill: #fff;
        fill-rule: evenodd;
      }
    </style>
  </defs>
<rect xmlns="http://www.w3.org/2000/svg" x="-20" y="-20" width="100%" height="100%" id="svg_10" fill="#921515"/>
<path id="ThirdParty" class="cls-1" d="M99.56,435.145a2.831,2.831,0,0,0,2.6,2.446L103,438.1a9.717,9.717,0,0,1-.584,1.614l-0.719-.2a2.362,2.362,0,1,0-3.273,3.342l0.3,1a9.984,9.984,0,0,1-2.5,1.136l-0.349-.71a2.831,2.831,0,0,0-2.228-2.786,2.83,2.83,0,0,0-2.449,2.593l-0.549.909a9.982,9.982,0,0,1-2.076-.88l0.253-.734a2.362,2.362,0,1,0-3.16-3.45l-0.962.235a10.078,10.078,0,0,1-.822-2.05l0.627-.308a2.333,2.333,0,1,0,.53-4.619,4.328,4.328,0,0,0,.915-1.466,2.774,2.774,0,0,0,2.775-.294,2.825,2.825,0,0,0-.291-3.552l-0.1-.326a3.857,3.857,0,0,0,1.755-1.427c0.207-.074.408-0.166,0.62-0.226l0.274,0.558a2.832,2.832,0,0,0,2.228,2.786,2.83,2.83,0,0,0,2.449-2.593l0.465-.769a9.888,9.888,0,0,1,2.112.879l-0.206.6a2.363,2.363,0,1,0,3.16,3.45l0.89-.217a10,10,0,0,1,.86,2.049l-0.594.291A2.833,2.833,0,0,0,99.56,435.145Zm-3.906-2.482a3.562,3.562,0,1,0,.559,5A3.568,3.568,0,0,0,95.655,432.663Zm1.4-8.321c0.062-1.485-1.965-2.775-3.513-2.839a3.561,3.561,0,0,0-.7.049V395.083a2.336,2.336,0,0,0-2.616-2.272L45.1,398.323a2.149,2.149,0,0,0-1.862,2.2v31.749a2.123,2.123,0,0,0,1.862,2.178l26.559,0.5a3.775,3.775,0,0,0,3.189,1.839,3.848,3.848,0,0,0,3.129-1.719l1.6,0.03c0,0.05-.018.1-0.02,0.151a4.42,4.42,0,0,0,.583,2.222v2.242L41.172,438.6A2.562,2.562,0,0,1,39,435.924V396.982a2.6,2.6,0,0,1,2.167-2.7L94.028,388a2.772,2.772,0,0,1,3.044,2.786V425.04H96.629Zm-16.678,8.535a14.022,14.022,0,0,1-2.5.838l-0.864-1.585a2.613,2.613,0,0,0-2.161-2.484,2.611,2.611,0,0,0-2.159,2.484l-0.905,1.65a14.018,14.018,0,0,1-2.388-.736l0.235-1.851a2.609,2.609,0,0,0-.3-3.277,2.616,2.616,0,0,0-3.206.754l-1.744.831a14.115,14.115,0,0,1-1.424-1.875l1.29-1.406a2.179,2.179,0,1,0-1.4-4.081l-1.962-.337a13.873,13.873,0,0,1-.1-1.614c0-.346.027-0.685,0.052-1.024l1.926-.373a2.18,2.18,0,1,0,1.3-4.114l-1.4-1.458a14.011,14.011,0,0,1,1.5-2.057L65.94,412a2.618,2.618,0,0,0,3.214.726,2.609,2.609,0,0,0,.27-3.279l-0.266-2a13.962,13.962,0,0,1,2.437-.8l0.943,1.731a2.613,2.613,0,0,0,2.161,2.484,2.611,2.611,0,0,0,2.159-2.484l0.953-1.736a13.856,13.856,0,0,1,2.345.747l-0.245,1.924a2.181,2.181,0,1,0,3.5,2.523l1.733-.825a14.057,14.057,0,0,1,1.4,1.9l-1.262,1.375a2.18,2.18,0,1,0,1.4,4.081l1.848,0.318a13.894,13.894,0,0,1,.09,1.51c0,0.4-.027.783-0.059,1.169l-1.79.347a2.179,2.179,0,1,0-1.3,4.113l1.272,1.33a13.975,13.975,0,0,1-1.539,2.11l-1.6-.75a2.18,2.18,0,1,0-3.484,2.552Zm-5.66-17.427a4.738,4.738,0,1,0,4.743,4.738A4.74,4.74,0,0,0,74.712,415.45Z" transform="translate(-39 -388)"/>
</svg>
