<svg xmlns="http://www.w3.org/2000/svg" viewBox="0 0 17.17 17.17"><defs><style>.cls-1{fill:#626364;}</style></defs><title>Asset 4</title><g id="Layer_2" data-name="Layer 2"><g id="Calque_1" data-name="Calque 1"><path class="cls-1" d="M8.59,0a8.59,8.59,0,1,0,8.59,8.59A8.59,8.59,0,0,0,8.59,0ZM15.3,6.5H9l2.49-4.32A7.05,7.05,0,0,1,15.3,6.5ZM9.78,8.59l-.6,1H8l-.6-1,.6-1H9.18Zm-1.19-7a7.07,7.07,0,0,1,1.54.17L7,7.17,4.51,2.87A7,7,0,0,1,8.59,1.56Zm-7,7A7,7,0,0,1,3.44,3.81L6.19,8.57h0l.39.68h-5A6.68,6.68,0,0,1,1.56,8.59Zm.31,2.08h6.3L5.69,15A7,7,0,0,1,1.88,10.67Zm6.71,4.94A7.08,7.08,0,0,1,7,15.44L10.18,10l2.48,4.31A7,7,0,0,1,8.59,15.61Zm5.14-2.25L10.59,7.9h5c0,.23,0,.46,0,.69A7,7,0,0,1,13.73,13.36Z"/></g></g></svg>