<svg xmlns="http://www.w3.org/2000/svg" viewBox="0 0 16.91 16.91"><defs><style>.cls-1{fill:#626364;}</style></defs><title>Asset 5</title><g id="Layer_2" data-name="Layer 2"><g id="Calque_1" data-name="Calque 1"><path class="cls-1" d="M8.46,0a8.46,8.46,0,1,0,8.46,8.46A8.46,8.46,0,0,0,8.46,0Zm6,5H8L9.93,1.7A6.92,6.92,0,0,1,14.42,5ZM6,8.45l1.22-2.1H9.67l1.22,2.1-1.21,2.1H7.25ZM8.43,1.54,5.24,7.07,3.35,3.8A6.89,6.89,0,0,1,8.43,1.54ZM2.45,5l3.2,5.53H1.86A6.9,6.9,0,0,1,2.45,5Zm0,6.91H8.87L7,15.21A6.92,6.92,0,0,1,2.49,11.94Zm6,3.43,3.19-5.53,1.89,3.26A6.89,6.89,0,0,1,8.49,15.37Zm6-3.49L11.27,6.36H15a6.89,6.89,0,0,1-.59,5.53Z"/></g></g></svg>