<svg xmlns="http://www.w3.org/2000/svg" width="200" height="200" viewBox="-11 -23 92 110" preserveAspectRatio="xMidYMin slice">
  <metadata><?xpacket begin="﻿" id="W5M0MpCehiHzreSzNTczkc9d"?>
<x:xmpmeta xmlns:x="adobe:ns:meta/" x:xmptk="Adobe XMP Core 5.6-c138 79.159824, 2016/09/14-01:09:01        ">
   <rdf:RDF xmlns:rdf="http://www.w3.org/1999/02/22-rdf-syntax-ns#">
      <rdf:Description rdf:about=""/>
   </rdf:RDF>
</x:xmpmeta>                         
<?xpacket end="w"?></metadata>
<defs>
    <style>
      .cls-1 {
        fill: #fff;
        fill-rule: evenodd;
      }
    </style>
  </defs>
  <rect xmlns="http://www.w3.org/2000/svg" x="-21" y="-61" width="500" height="500" id="svg_10" fill="#FF7F50"/>
  <path id="LDM" class="cls-1" d="M91.836,138.8a0.936,0.936,0,0,1-.925.893H44.644a0.936,0.936,0,0,1-.925-0.893V112a0.936,0.936,0,0,1,.925-0.893H90.911a0.936,0.936,0,0,1,.925.893v26.8Zm4.881-27.951A4.851,4.851,0,0,0,91.892,106H43.646a4.851,4.851,0,0,0-4.825,4.849v29.1a4.851,4.851,0,0,0,4.825,4.849H91.892a4.851,4.851,0,0,0,4.825-4.849v-29.1Zm-23.382-.984h1.394v31.164H73.335V109.862Zm1.339,16.4v-1.149H91.893v1.149H74.673Zm-35.4-3.218H35.752V112.371a0.849,0.849,0,0,0-.656-0.97H33.783a0.849,0.849,0,0,0-.656.97v25.216c0,1.476,2.625,1.179,2.625,0V126.918h3.521v-3.879Zm57.455,0h3.52V112.371a0.849,0.849,0,0,1,.656-0.97h1.313a0.849,0.849,0,0,1,.656.97v25.216a0.849,0.849,0,0,1-.656.97H100.9a0.849,0.849,0,0,1-.656-0.97V126.918h-3.52v-3.879Zm-63.357,18.18c0,7.9,3.367,10.8,10.741,10.8H69.764v-2.256L43.952,149.6c-5.932,0-8.337-3.706-8.337-8.379l0-5.123L33,135.067S33.371,140.53,33.371,141.219Zm69.258,0c0,7.9-3.367,10.8-10.741,10.8H66.236v-2.256l25.812-.161c5.932,0,8.337-3.706,8.337-8.379l0-5.123L103,135.067S102.629,140.53,102.629,141.219Z" transform="translate(-33 -106)"/>
</svg>
