<svg xmlns="http://www.w3.org/2000/svg" viewBox="0 0 10 24.69"><defs><style>.cls-1{fill:#626364;}</style></defs><title>Asset 1</title><g id="Layer_2" data-name="Layer 2"><g id="Calque_1" data-name="Calque 1"><path class="cls-1" d="M.28,15A12.61,12.61,0,0,0,10,24.69V0A12.62,12.62,0,0,0,.28,15Zm7.67,6.85a10.59,10.59,0,0,1-2.16-1.42l2.16-1.6Zm0-4.73L4.78,19.42a10.53,10.53,0,0,1-1.29-1.77l4.46-3.3Zm0-4.44L2.87,16.4a10.44,10.44,0,0,1-.65-2.25L7.95,9.92Zm0-4.44L2.06,12.57a10.68,10.68,0,0,1,.37-3L7.95,5.48Zm0-5.34v.9L3.45,7.1A10.57,10.57,0,0,1,7.95,2.88Z"/></g></g></svg>