<svg xmlns="http://www.w3.org/2000/svg" viewBox="0 0 14.17 14.17"><defs><style>.cls-1{fill:none;}.cls-2{fill:#626364;}</style></defs><title>Asset 2</title><g id="Layer_2" data-name="Layer 2"><g id="Calque_1" data-name="Calque 1"><polygon class="cls-1" points="5.94 1.13 13.04 8.23 13.04 7.03 7.15 1.13 5.94 1.13"/><polygon class="cls-1" points="1.13 1.13 13.04 13.04 13.04 11.84 2.34 1.13 1.13 1.13"/><polygon class="cls-1" points="8.35 1.13 13.04 5.82 13.04 4.62 9.55 1.13 8.35 1.13"/><polygon class="cls-1" points="10.76 1.13 13.04 3.42 13.04 2.21 11.96 1.13 10.76 1.13"/><polygon class="cls-1" points="1.13 3.54 10.63 13.04 11.84 13.04 1.13 2.34 1.13 3.54"/><path class="cls-2" d="M0,0V14.17H14.17V0ZM1.13,13V12L2.21,13Zm2.28,0L1.13,10.75V9.55L4.62,13Zm2.41,0L1.13,8.35V7.15L7,13Zm2.41,0L1.13,5.94V4.74L9.43,13Zm2.41,0-9.5-9.5V2.34L11.84,13ZM13,13,1.13,1.13h1.2L13,11.84Zm0-2.41-9.5-9.5h1.2L13,9.43Zm0-2.41L5.94,1.13h1.2L13,7Zm0-2.41L8.35,1.13h1.2L13,4.62Zm0-2.41L10.75,1.13H12L13,2.21Z"/></g></g></svg>