<svg xmlns="http://www.w3.org/2000/svg" width="200" height="200" viewBox="-17 -15 92 110" preserveAspectRatio="xMidYMin slice"> 
  <metadata><?xpacket begin="﻿" id="W5M0MpCehiHzreSzNTczkc9d"?>
<x:xmpmeta xmlns:x="adobe:ns:meta/" x:xmptk="Adobe XMP Core 5.6-c138 79.159824, 2016/09/14-01:09:01        ">
   <rdf:RDF xmlns:rdf="http://www.w3.org/1999/02/22-rdf-syntax-ns#">
      <rdf:Description rdf:about=""/>
   </rdf:RDF>
</x:xmpmeta>                          
<?xpacket end="w"?></metadata>
<defs>
    <style>
      .cls-1 {
        fill: #fff;
        fill-rule: evenodd;
      }
    </style>
  </defs>
  <rect xmlns="http://www.w3.org/2000/svg" x="-21" y="-61" width="500" height="500" id="svg_10" fill="#6b5e3a"/>
  <path id="Angles" class="cls-1" d="M94.775,336.232a14.176,14.176,0,0,1-1.922-1.61c-1.58-1.579-1.723-4.12-2.288-6.371a0.777,0.777,0,0,0-.522-0.78c-2.838-.156-7.94-0.121-7.94-0.121a18.392,18.392,0,0,1-2.355,2.927,5.117,5.117,0,0,0-.43.491,15.235,15.235,0,0,1-8-13.324c0-.306.027-0.605,0.044-0.9l0.24,0.077a0.245,0.245,0,0,0,.307-0.156l0.144-.452a1.359,1.359,0,0,0,1.26-1.129,1.429,1.429,0,0,0-.4-1.537l0.146-.455a0.244,0.244,0,0,0-.157-0.308l-0.681-.218a14.688,14.688,0,0,1,12.106-9.932s-0.1,1.245-.1,1.734c-0.961,0-3.011.2-3.641,0.2-0.542,0-.677.381-0.677,0.97s0.133,2.84.133,2.84a0.234,0.234,0,0,0-.209.229v0.373a0.24,0.24,0,0,0,.24.243h13.47a0.242,0.242,0,0,0,.243-0.243V308.4a0.237,0.237,0,0,0-.2-0.224s0.232-2.822.232-3.413c0-.337-0.343-0.289-0.925-0.4,0-3.323-.433-6.607-0.433-12.166a0.985,0.985,0,0,0-1.018-1.021H85.865a1.016,1.016,0,0,0-1.024,1.021c0,3.286-.354,7.555-0.354,7.555a17.471,17.471,0,0,0-12.563,7.637,3.072,3.072,0,0,0-2.543-.753,6.2,6.2,0,0,0-2,2.089,6.75,6.75,0,0,0-3.426-.93,6.483,6.483,0,0,0-6.339,4.739,14.221,14.221,0,0,0-1.645-1.407,2.785,2.785,0,0,1-.589-1.1c0-11.951,9.936-19.9,13.506-22.969,0.98-.842.706-0.61,0.706-1.328a9.2,9.2,0,0,0-1.609-4.985,1.84,1.84,0,0,0-.8-0.721c-1.241,0-3.315-.011-3.315-0.011l-0.733.283H49.188s0.068,4.79,4.586,4.79h7.453v0.98a1.919,1.919,0,0,0,1.041,1.041,53.574,53.574,0,0,0-9.317,11.713c-0.32.517-1.44,0.665-2.168,0.714a4.35,4.35,0,0,0,1.571-3.635,1.413,1.413,0,0,0-.5-0.625H51.306L51,292.929a0.144,0.144,0,0,0-.157-0.126H48.812a0.144,0.144,0,0,0-.157.126l-0.3,2.343h-0.6a2.316,2.316,0,0,0-.542.625,4.225,4.225,0,0,0,1.691,3.695,0.337,0.337,0,0,0-.226.451s0.762,7.242-.608,11.7c0,0-4.393,1.725-6.491,4.356a1.64,1.64,0,0,0-.449,1.786c2.546,7.485,2.113,11.27,2.113,11.27S43,338.072,42.927,339.73c-0.386.227-.468,0.127-0.468,0.542s0.313,1.715.991,1.715H79.177c0.585,0,1.593-2.027.806-2.027a5.687,5.687,0,0,0-3.433-1.333c-1.242,0-3.7-.245-3.7-0.245s-5.444-.779-12.2-2.129c-3.314-.662-3.635-5.057-3.635-5.057l0.31-.919c0.2-3.5.087-5.5,0.087-7.994a22.257,22.257,0,0,0,4.215-1.029,23.54,23.54,0,0,1,3.87.189,7.312,7.312,0,0,1,1.931,1.255,1.11,1.11,0,0,0,.992.247c0.436-.078.815-0.138,1.139-0.2A17.929,17.929,0,0,0,78.052,333a6.834,6.834,0,0,0-.556,1.889c0,0.563-1.767,4.578,5.841,5.311S95,339.605,95,337.746,94.775,336.232,94.775,336.232ZM65.613,311.638a3.885,3.885,0,0,1-1.95,1.852s-1.236-.052-2.143-0.052a2.838,2.838,0,0,0-1.294-.563,3.917,3.917,0,0,1,3.733-2.5,4.187,4.187,0,0,1,2.028.53C65.825,311.193,65.694,311.449,65.613,311.638Z" transform="translate(-41.031 -280)"/>
</svg>
