<svg xmlns="http://www.w3.org/2000/svg" width="200" height="200" viewBox="8 -18 92 110" preserveAspectRatio="xMidYMin slice">
  <metadata><?xpacket begin="﻿" id="W5M0MpCehiHzreSzNTczkc9d"?>
<x:xmpmeta xmlns:x="adobe:ns:meta/" x:xmptk="Adobe XMP Core 5.6-c138 79.159824, 2016/09/14-01:09:01        ">
   <rdf:RDF xmlns:rdf="http://www.w3.org/1999/02/22-rdf-syntax-ns#">
      <rdf:Description rdf:about=""/>
   </rdf:RDF>
</x:xmpmeta>                         
<?xpacket end="w"?></metadata>
<defs>
    <style>
      .cls-1 {
        fill: #fff;
        fill-rule: evenodd;
      }
    </style>
  </defs>
  <rect xmlns="http://www.w3.org/2000/svg" x="-21" y="-61" width="500" height="500" id="svg_10" fill="#2e4e73"/>
  <path id="review" class="cls-1" d="M89.95,32.81l23.9,11.528a2.066,2.066,0,0,1,.965,2.767l-11.6,23.75a2.09,2.09,0,0,1-2.785.959l-23.9-11.528a2.065,2.065,0,0,1-.965-2.767l11.6-23.75A2.09,2.09,0,0,1,89.95,32.81ZM91.4,36.96l18.276,8.815a2.065,2.065,0,0,1,.965,2.767L101.767,66.7a2.09,2.09,0,0,1-2.784.959L80.706,58.847a2.065,2.065,0,0,1-.965-2.767l8.871-18.162A2.09,2.09,0,0,1,91.4,36.96ZM60.063,24.25H91a4,4,0,0,1,4,4V58.969a4,4,0,0,1-4,4H60.063a4,4,0,0,1-4-4V28.25A4,4,0,0,1,60.063,24.25Zm2.588,3.94H88.387a2.631,2.631,0,0,1,2.64,2.623V56.387a2.631,2.631,0,0,1-2.64,2.623H62.651a2.631,2.631,0,0,1-2.64-2.623V30.813A2.631,2.631,0,0,1,62.651,28.19ZM31.193,26.768l35.469-8.679a2.863,2.863,0,0,1,3.46,2.112l8.645,35.608a2.875,2.875,0,0,1-2.1,3.474L41.2,67.961a2.863,2.863,0,0,1-3.46-2.112L29.09,30.241A2.875,2.875,0,0,1,31.193,26.768Zm5.19,3.168L63.507,23.3a2.863,2.863,0,0,1,3.46,2.112l6.611,27.23a2.875,2.875,0,0,1-2.1,3.474L44.351,62.751a2.863,2.863,0,0,1-3.46-2.112L34.28,33.409A2.875,2.875,0,0,1,36.383,29.936Zm-5.19-3.168,35.469-8.679a2.863,2.863,0,0,1,3.46,2.112l8.645,35.608a2.875,2.875,0,0,1-2.1,3.474L41.2,67.961a2.863,2.863,0,0,1-3.46-2.112L29.09,30.241A2.875,2.875,0,0,1,31.193,26.768Zm5.19,3.168L63.507,23.3a2.863,2.863,0,0,1,3.46,2.112l6.611,27.23a2.875,2.875,0,0,1-2.1,3.474L44.351,62.751a2.863,2.863,0,0,1-3.46-2.112L34.28,33.409A2.875,2.875,0,0,1,36.383,29.936Z" transform="translate(-29 -18)"/>
</svg>
