<svg xmlns="http://www.w3.org/2000/svg" viewBox="0 0 10 24.69"><defs><style>.cls-1{fill:#626364;}</style></defs><title>Asset 3</title><g id="Layer_2" data-name="Layer 2"><g id="Calque_1" data-name="Calque 1"><path class="cls-1" d="M0,0V24.69A12.61,12.61,0,0,0,9.72,15,12.62,12.62,0,0,0,0,0ZM2.06,18.79l2.16,1.6a10.62,10.62,0,0,1-2.16,1.42Zm0-4.44,4.46,3.3a10.58,10.58,0,0,1-1.29,1.77L2.06,17.08Zm0-4.43,5.73,4.24a10.44,10.44,0,0,1-.65,2.25L2.06,12.65Zm0-4.44L7.57,9.56a10.68,10.68,0,0,1,.37,3L2.06,8.21ZM6.55,7.1,2.06,3.78v-.9A10.57,10.57,0,0,1,6.55,7.1Z"/></g></g></svg>